<?xml version="1.0" encoding="UTF-8" standalone="no"?>
<!-- Created with Inkscape (http://www.inkscape.org/) -->

<svg
   width="210mm"
   height="297mm"
   viewBox="0 0 210 297"
   version="1.1"
   id="svg5"
   sodipodi:docname="card.svg"
   inkscape:version="1.1.1 (3bf5ae0d25, 2021-09-20)"
   xmlns:inkscape="http://www.inkscape.org/namespaces/inkscape"
   xmlns:sodipodi="http://sodipodi.sourceforge.net/DTD/sodipodi-0.dtd"
   xmlns="http://www.w3.org/2000/svg"
   xmlns:svg="http://www.w3.org/2000/svg">
  <sodipodi:namedview
     id="namedview7"
     pagecolor="#4a4a4a"
     bordercolor="#666666"
     borderopacity="1.0"
     inkscape:pageshadow="2"
     inkscape:pageopacity="0"
     inkscape:pagecheckerboard="0"
     inkscape:document-units="mm"
     showgrid="false"
     inkscape:zoom="1.4645623"
     inkscape:cx="373.49043"
     inkscape:cy="619.63906"
     inkscape:window-width="1920"
     inkscape:window-height="1019"
     inkscape:window-x="0"
     inkscape:window-y="25"
     inkscape:window-maximized="1"
     inkscape:current-layer="layer1" />
  <defs
     id="defs2">
    <inkscape:path-effect
       effect="spiro"
       id="path-effect3292"
       is_visible="true"
       lpeversion="1" />
    <inkscape:path-effect
       effect="spiro"
       id="path-effect3288"
       is_visible="true"
       lpeversion="1" />
  </defs>
  <g
     inkscape:label="Layer 1"
     inkscape:groupmode="layer"
     id="layer1">
    <rect
       style="opacity:1;fill:#00e149;stroke:none;stroke-width:0.127602;stroke-linejoin:round;fill-opacity:1"
       id="rect890"
       width="130.85007"
       height="78.420486"
       x="37.108833"
       y="110.10167"
       ry="7.9476514" />
    <path
       style="fill:#00ab38;stroke:#000000;stroke-width:0.264583px;stroke-linecap:butt;stroke-linejoin:miter;stroke-opacity:1;fill-opacity:1"
       d="m 34.614299,159.83362 c 3.666173,-8.76654 11.688992,-15.40015 20.786233,-18.14483 5.276334,-1.5919 10.947716,-1.95741 16.341055,-0.82351 5.393339,1.13389 10.490618,3.79223 14.34401,7.73243 2.931666,2.99771 5.098537,6.65849 6.946516,10.42225 2.661891,5.42145 4.754464,11.35372 4.3066,17.37678 -0.223932,3.01153 -1.101431,5.9992 -2.73545,8.53877 -1.634018,2.53958 -4.046876,4.61045 -6.886989,5.63671 -3.246959,1.17327 -6.8258,0.94503 -10.23837,0.4219 -3.412571,-0.52314 -6.8126,-1.32772 -10.264358,-1.25936 -1.725879,0.0342 -3.458496,0.29133 -5.075694,0.89507 -1.617198,0.60373 -3.117691,1.5645 -4.240681,2.8755 -1.122991,1.31099 -1.851693,2.98249 -1.912832,4.70763 -0.06114,1.72513 0.576885,3.48963 1.821375,4.6859 0.49609,0.47687 1.074748,0.85763 1.61536,1.28336 0.540613,0.42573 1.055528,0.91214 1.362525,1.52798 0.291203,0.58416 0.37751,1.26389 0.266175,1.90705 -0.111334,0.64315 -0.416372,1.24805 -0.848596,1.73716 -0.432223,0.48911 -0.988866,0.86337 -1.595925,1.10321 -0.607059,0.23983 -1.26349,0.34691 -1.916154,0.33841 -1.305327,-0.017 -2.573411,-0.49158 -3.688375,-1.17057 -1.114965,-0.67898 -2.093286,-1.55776 -3.044121,-2.45223 -6.433555,-6.0522 -12.011093,-13.20966 -15.133417,-21.47228 -3.122323,-8.26262 -3.616797,-17.71835 -0.208887,-25.86733 z"
       id="path3286"
       inkscape:path-effect="#path-effect3288"
       inkscape:original-d="m 34.614299,159.83362 c -5.114366,-15.78014 13.857753,-12.09629 20.786233,-18.14483 6.92848,-6.04853 20.456975,4.60621 30.685065,6.90892 10.22809,2.30271 4.631274,6.94843 6.946516,10.42225 2.315239,3.47381 -3.543628,21.03511 -5.315839,31.55226 -1.772211,10.51716 -19.940108,8.21803 -29.91056,12.32664 -9.97045,4.10862 1.98552,1.87449 2.977885,2.81134 0.992362,0.93685 -7.217733,0.97562 -10.826996,1.46303 -3.609263,0.48741 -10.227937,-31.55948 -15.342304,-47.33961 z" />
    <path
       style="fill:#00ab38;stroke:#000000;stroke-width:0.264583px;stroke-linecap:butt;stroke-linejoin:miter;stroke-opacity:1;fill-opacity:1"
       d="m 128.80673,96.800634 c -2.30683,5.380926 -2.29078,11.492236 -1.38149,17.275756 0.90928,5.78352 2.66301,11.40249 3.72797,17.15938 1.09712,5.93071 1.46181,11.99907 2.95591,17.84242 1.29359,5.05915 3.51308,10.02032 7.26072,13.65674 1.87382,1.81821 4.1148,3.27747 6.58422,4.12545 2.46942,0.84797 5.16932,1.0709 7.71822,0.50504 2.95905,-0.65692 5.61644,-2.34412 7.80634,-4.4398 2.1899,-2.09568 3.95055,-4.59474 5.59907,-7.13834 5.40871,-8.34543 9.81181,-17.49281 11.60183,-27.27525 1.79002,-9.78244 0.81062,-20.26787 -3.97735,-28.984268 -2.39399,-4.358197 -5.7164,-8.224974 -9.76803,-11.107561 -4.05164,-2.882588 -8.83641,-4.763434 -13.78596,-5.239869 -4.94955,-0.476434 -10.05217,0.47442 -14.41884,2.852921 -4.36667,2.3785 -7.96336,6.197218 -9.92261,10.767381 z"
       id="path3290"
       inkscape:path-effect="#path-effect3292"
       inkscape:original-d="m 128.80673,96.800634 c -13.42392,-19.662481 1.56458,22.957026 2.34648,34.435136 0.78189,11.47812 1.97087,11.89521 2.95591,17.84242 0.98505,5.94721 14.37571,12.19175 21.56316,18.28723 7.18745,6.09547 8.9372,-7.71849 13.40541,-11.57814 4.4682,-3.85964 -26.84704,-39.32416 -40.27096,-58.986646 z" />
  </g>
</svg>
