<?xml version="1.0" encoding="UTF-8"?>
<!-- Created with Inkscape (http://www.inkscape.org/) -->
<svg width="2500" height="98.235" preserveAspectRatio='xMidYMin slice' version="1.1" viewBox="0 0 661.46 25.991" xmlns="http://www.w3.org/2000/svg">
 <defs>
  <filter id="filter52421" x="-.0023762" y="-.116" width="1.0048" height="1.212" color-interpolation-filters="sRGB">
   <feFlood flood-color="rgb(124,124,124)" flood-opacity=".61176" result="flood"/>
   <feComposite in="flood" in2="SourceGraphic" operator="in" result="composite1"/>
   <feGaussianBlur in="composite1" result="blur" stdDeviation="2"/>
   <feOffset dx="0" dy="-1" result="offset"/>
   <feComposite in="SourceGraphic" in2="offset" result="composite2"/>
  </filter>
 </defs>
 <g transform="translate(7.365 2.5419)">
  <path transform="matrix(.32591 0 0 .32591 -2.672 2.7871)" d="m-9.6 8.6 0.101 50h2019.9v-50h-980c-5.3727 4.8e-5 -5.1874 3.5175-5.5485 5.2119-1.459 6.8457-5.751 12.859-11.951 16.439-7.735 4.4658-17.265 4.4658-25 0-6.199-3.579-10.49-9.5906-11.95-16.434-0.36175-1.6958-0.38213-5.2164-5.5497-5.2164z" fill="#fff" filter="url(#filter52421)"/>
  <text x="334.3324" y="-1.1282464" fill="#000000" font-family="sans-serif" font-size="10.583px" stroke-width=".26458" style="line-height:1.25" xml:space="preserve"><tspan x="334.3324" y="-1.1282464" stroke-width=".26458"/></text>
  <g transform="matrix(.93883 0 0 .93883 19.773 1.0973)">
   <circle cx="323.26" cy="4.7171" r="7.0024" fill="#078500" stroke="#000" stroke-width=".51322"/>
   <g fill="#fff" stroke="#fff">
    <g stroke-linejoin="round" stroke-width=".17199" aria-label="FOOD">
     <path d="m319.73 1.0226h1.1778v0.23336h-0.90051v0.604h0.81266v0.23336h-0.81266v0.97875h-0.27729z"/>
     <path d="m322.18 1.2107q-0.302 0-0.48045 0.22513-0.17708 0.22513-0.17708 0.61361 0 0.38711 0.17708 0.61224 0.17845 0.22513 0.48045 0.22513t0.47771-0.22513q0.17708-0.22513 0.17708-0.61224 0-0.38848-0.17708-0.61361-0.17571-0.22513-0.47771-0.22513zm0-0.22513q0.43104 0 0.68911 0.28964 0.25807 0.28827 0.25807 0.77422 0 0.48457-0.25807 0.77422-0.25807 0.28827-0.68911 0.28827-0.4324 0-0.69185-0.28827-0.25807-0.28827-0.25807-0.77422t0.25807-0.77422q0.25945-0.28964 0.69185-0.28964z"/>
     <path d="m324.4 1.2107q-0.302 0-0.48046 0.22513-0.17708 0.22513-0.17708 0.61361 0 0.38711 0.17708 0.61224 0.17846 0.22513 0.48046 0.22513 0.30199 0 0.4777-0.22513 0.17709-0.22513 0.17709-0.61224 0-0.38848-0.17709-0.61361-0.17571-0.22513-0.4777-0.22513zm0-0.22513q0.43103 0 0.6891 0.28964 0.25808 0.28827 0.25808 0.77422 0 0.48457-0.25808 0.77422-0.25807 0.28827-0.6891 0.28827-0.43241 0-0.69186-0.28827-0.25807-0.28827-0.25807-0.77422t0.25807-0.77422q0.25945-0.28964 0.69186-0.28964z"/>
     <path d="m326.05 1.2505v1.5937h0.33494q0.42417 0 0.62047-0.19218 0.19768-0.19218 0.19768-0.60674 0-0.41182-0.19768-0.60263-0.1963-0.19218-0.62047-0.19218zm-0.27729-0.22787h0.56968q0.59576 0 0.87442 0.24846 0.27867 0.24709 0.27867 0.77422 0 0.52987-0.28004 0.77833-0.28004 0.24846-0.87305 0.24846h-0.56968z"/>
    </g>
    <g stroke-linejoin="round" stroke-width=".12866" aria-label="LOVER'S">
     <path d="m319.71 3.9445h0.18982v1.2432h0.68316v0.15975h-0.87298z"/>
     <path d="m321.29 4.0732q-0.20674 0-0.3289 0.15411-0.12122 0.15411-0.12122 0.42004 0 0.26499 0.12122 0.4191 0.12216 0.15411 0.3289 0.15411 0.20673 0 0.32701-0.15411 0.12122-0.15411 0.12122-0.4191 0-0.26593-0.12122-0.42004-0.12028-0.15411-0.32701-0.15411zm0-0.15411q0.29506 0 0.47172 0.19828 0.17666 0.19734 0.17666 0.52999 0 0.33171-0.17666 0.52999-0.17666 0.19734-0.47172 0.19734-0.29601 0-0.47361-0.19734-0.17666-0.19734-0.17666-0.52999t0.17666-0.52999q0.1776-0.19828 0.47361-0.19828z"/>
     <path d="m322.56 5.3474-0.53562-1.403h0.19827l0.44448 1.1812 0.44541-1.1812h0.19733l-0.53468 1.403z"/>
     <path d="m323.51 3.9445h0.88707v0.15975h-0.69725v0.41534h0.66812v0.15975h-0.66812v0.50837h0.71416v0.15975h-0.90398z"/>
     <path d="m325.4 4.6896q0.0611 0.020673 0.1184 0.088331 0.0583 0.067658 0.11652 0.18606l0.19264 0.38339h-0.20391l-0.17948-0.3599q-0.0695-0.14095-0.13532-0.187-0.0648-0.046045-0.1776-0.046045h-0.20673v0.59295h-0.18982v-1.403h0.4285q0.24056 0 0.35896 0.10055 0.1184 0.10055 0.1184 0.30352 0 0.1325-0.062 0.21989-0.0611 0.087391-0.17854 0.12122zm-0.47548-0.58919v0.49804h0.23868q0.13719 0 0.20673-0.062959 0.0705-0.063899 0.0705-0.187 0-0.1231-0.0705-0.18512-0.0695-0.062959-0.20673-0.062959z"/>
     <path d="m326.22 3.9445v0.52153h-0.15975v-0.52153z"/>
     <path d="m327.44 3.9905v0.18512q-0.10806-0.051683-0.20391-0.077055-0.0959-0.025372-0.18512-0.025372-0.15505 0-0.23962 0.06014-0.0836 0.06014-0.0836 0.17102 0 0.093029 0.0554 0.14095 0.0564 0.046985 0.21237 0.076115l0.11464 0.023492q0.21237 0.040407 0.31292 0.14283 0.10149 0.10149 0.10149 0.27251 0 0.20391-0.1372 0.30916-0.13626 0.10525-0.40031 0.10525-0.0996 0-0.21237-0.022553-0.11182-0.022553-0.2321-0.066718v-0.19546q0.11558 0.064839 0.22646 0.097728 0.11089 0.032889 0.21801 0.032889 0.16257 0 0.2509-0.063899 0.0883-0.063899 0.0883-0.1823 0-0.10337-0.0639-0.16163-0.063-0.058261-0.20767-0.087391l-0.11554-0.022552q-0.21237-0.042286-0.30728-0.1325-0.0949-0.09021-0.0949-0.2509 0-0.18606 0.13062-0.29318 0.13155-0.10712 0.36178-0.10712 0.0987 0 0.20109 0.017854 0.10243 0.017854 0.20955 0.053562z"/>
    </g>
    <path d="m319.95 6.2306h7.3338c0.0931 0 0.16814 0.074989 0.16814 0.16814v1.8847c0 0.093148-0.075 0.16814-0.16814 0.16814h-7.3338c-0.0932 0-0.16814-0.074989-0.16814-0.16814v-1.8847c0-0.093148 0.075-0.16814 0.16814-0.16814z" stroke-width=".26744"/>
   </g>
   <g fill="#078500" stroke="#078500" stroke-linejoin="round" stroke-width=".1081" aria-label="MARKET">
    <path d="m320.23 6.9678h0.17409l0.22036 0.58763 0.22152-0.58763h0.17409v0.86351h-0.11394v-0.75825l-0.22268 0.59226h-0.11741l-0.22267-0.59226v0.75825h-0.11336z"/>
    <path d="m321.94 7.0829-0.15848 0.42973h0.31753zm-0.0659-0.1151h0.13245l0.3291 0.86351h-0.12146l-0.0787-0.22152h-0.38925l-0.0787 0.22152h-0.12319z"/>
    <path d="m323.27 7.4265q0.0376 0.012724 0.0729 0.054367 0.0359 0.041643 0.0717 0.11452l0.11857 0.23598h-0.12551l-0.11047-0.22152q-0.0428-0.086756-0.0833-0.1151-0.0399-0.02834-0.10931-0.02834h-0.12724v0.36495h-0.11683v-0.86351h0.26374q0.14806 0 0.22093 0.061886 0.0729 0.061886 0.0729 0.18681 0 0.081551-0.0382 0.13534-0.0376 0.053789-0.10989 0.07461zm-0.29266-0.36264v0.30654h0.14691q0.0844 0 0.12724-0.038751 0.0434-0.039329 0.0434-0.1151 0-0.075767-0.0434-0.11394-0.0428-0.038751-0.12724-0.038751z"/>
    <path d="m324.07 6.9678h0.11683v0.36495l0.38751-0.36495h0.15038l-0.42858 0.40255 0.45923 0.46096h-0.15385l-0.41469-0.41585v0.41585h-0.11683z"/>
    <path d="m325.25 6.9678h0.54599v0.098324h-0.42916v0.25564h0.41123v0.098324h-0.41123v0.3129h0.43957v0.098324h-0.5564z"/>
    <path d="m326.27 6.9678h0.73048v0.098324h-0.30653v0.76519h-0.11741v-0.76519h-0.30654z"/>
   </g>
   <text transform="matrix(.28182 0 0 .28182 -28.906 -3.8763)" font-family="sans-serif" font-size="6.6667px" style="line-height:1.25;shape-inside:url(#rect301226);white-space:pre" xml:space="preserve"/>
  </g>
 </g>
</svg>
