<?xml version="1.0" encoding="UTF-8" standalone="no"?>
<!-- Created with Inkscape (http://www.inkscape.org/) -->

<svg
   preserveAspectRatio="xMidYMin slice"
   version="1.1"
   viewBox="0 0 2500.0156 204.65976"
   width="2500.0156"
   height="204.65976"
   id="svg73"
   sodipodi:docname="drawing.svg"
   inkscape:version="1.1.1 (3bf5ae0d25, 2021-09-20)"
   xmlns:inkscape="http://www.inkscape.org/namespaces/inkscape"
   xmlns:sodipodi="http://sodipodi.sourceforge.net/DTD/sodipodi-0.dtd"
   xmlns="http://www.w3.org/2000/svg"
   xmlns:svg="http://www.w3.org/2000/svg">
  <sodipodi:namedview
     id="namedview75"
     pagecolor="#ffffff"
     bordercolor="#666666"
     borderopacity="1.0"
     inkscape:pageshadow="2"
     inkscape:pageopacity="0.0"
     inkscape:pagecheckerboard="0"
     showgrid="false"
     fit-margin-top="0"
     fit-margin-left="0"
     fit-margin-right="0"
     fit-margin-bottom="0"
     inkscape:zoom="0.9696"
     inkscape:cx="1047.8548"
     inkscape:cy="210.91172"
     inkscape:window-width="1920"
     inkscape:window-height="1019"
     inkscape:window-x="0"
     inkscape:window-y="25"
     inkscape:window-maximized="1"
     inkscape:current-layer="svg73" />
  <defs
     id="defs13">
    <filter
       id="filter52421"
       x="-0.0023762364"
       y="-0.041356838"
       width="1.0047525"
       height="1.0755832"
       color-interpolation-filters="sRGB">
      <feFlood
         flood-color="rgb(124,124,124)"
         flood-opacity=".61176"
         result="flood"
         id="feFlood2" />
      <feComposite
         in="flood"
         in2="SourceGraphic"
         operator="in"
         result="composite1"
         id="feComposite4" />
      <feGaussianBlur
         in="composite1"
         result="blur"
         stdDeviation="2"
         id="feGaussianBlur6" />
      <feOffset
         dx="0"
         dy="-1"
         result="offset"
         id="feOffset8" />
      <feComposite
         in="SourceGraphic"
         in2="offset"
         result="composite2"
         id="feComposite10" />
    </filter>
  </defs>
  <g
     transform="matrix(3.7795,0,0,3.7795,27.836411,4.8722334)"
     id="g71">
    <path
       transform="matrix(0.32591,0,0,0.32591,-2.672,2.7871)"
       d="m -9.6,8.6 0.101,140.24283 h 2019.9 V 8.6 h -980 c -5.3727,4.8e-5 -5.1874,3.5175 -5.5485,5.2119 -1.459,6.8457 -5.751,12.859 -11.951,16.439 -7.735,4.4658 -17.265,4.4658 -25,0 -6.199,-3.579 -10.49,-9.5906 -11.95,-16.434 -0.36175,-1.6958 -0.38213,-5.2164 -5.5497,-5.2164 z"
       fill="#ffffff"
       filter="url(#filter52421)"
       id="path15"
       sodipodi:nodetypes="cccccscsscc" />
    <text
       x="334.3324"
       y="-1.1282464"
       fill="#000000"
       font-family="sans-serif"
       font-size="10.583px"
       stroke-width="0.26458"
       style="line-height:1.25"
       xml:space="preserve"
       id="text19"><tspan
         x="334.3324"
         y="-1.1282464"
         stroke-width="0.26458"
         id="tspan17" /></text>
    <g
       transform="matrix(0.93883,0,0,0.93883,19.773,1.0973)"
       id="g69">
      <circle
         cx="323.26001"
         cy="4.7171001"
         r="7.0023999"
         fill="#078500"
         stroke="#000000"
         stroke-width="0.51322"
         id="circle21" />
      <g
         fill="#ffffff"
         stroke="#ffffff"
         id="g51">
        <g
           stroke-linejoin="round"
           stroke-width="0.17199"
           aria-label="FOOD"
           id="g31">
          <path
             d="m 319.73,1.0226 h 1.1778 v 0.23336 h -0.90051 v 0.604 h 0.81266 v 0.23336 h -0.81266 V 3.07207 H 319.73 Z"
             id="path23" />
          <path
             d="m 322.18,1.2107 q -0.302,0 -0.48045,0.22513 -0.17708,0.22513 -0.17708,0.61361 0,0.38711 0.17708,0.61224 0.17845,0.22513 0.48045,0.22513 0.302,0 0.47771,-0.22513 0.17708,-0.22513 0.17708,-0.61224 0,-0.38848 -0.17708,-0.61361 Q 322.482,1.2107 322.18,1.2107 Z m 0,-0.22513 q 0.43104,0 0.68911,0.28964 0.25807,0.28827 0.25807,0.77422 0,0.48457 -0.25807,0.77422 -0.25807,0.28827 -0.68911,0.28827 -0.4324,0 -0.69185,-0.28827 -0.25807,-0.28827 -0.25807,-0.77422 0,-0.48595 0.25807,-0.77422 0.25945,-0.28964 0.69185,-0.28964 z"
             id="path25" />
          <path
             d="m 324.4,1.2107 q -0.302,0 -0.48046,0.22513 -0.17708,0.22513 -0.17708,0.61361 0,0.38711 0.17708,0.61224 0.17846,0.22513 0.48046,0.22513 0.30199,0 0.4777,-0.22513 0.17709,-0.22513 0.17709,-0.61224 0,-0.38848 -0.17709,-0.61361 Q 324.70199,1.2107 324.4,1.2107 Z m 0,-0.22513 q 0.43103,0 0.6891,0.28964 0.25808,0.28827 0.25808,0.77422 0,0.48457 -0.25808,0.77422 -0.25807,0.28827 -0.6891,0.28827 -0.43241,0 -0.69186,-0.28827 -0.25807,-0.28827 -0.25807,-0.77422 0,-0.48595 0.25807,-0.77422 0.25945,-0.28964 0.69186,-0.28964 z"
             id="path27" />
          <path
             d="m 326.05,1.2505 v 1.5937 h 0.33494 q 0.42417,0 0.62047,-0.19218 0.19768,-0.19218 0.19768,-0.60674 0,-0.41182 -0.19768,-0.60263 -0.1963,-0.19218 -0.62047,-0.19218 z m -0.27729,-0.22787 h 0.56968 q 0.59576,0 0.87442,0.24846 0.27867,0.24709 0.27867,0.77422 0,0.52987 -0.28004,0.77833 -0.28004,0.24846 -0.87305,0.24846 h -0.56968 z"
             id="path29" />
        </g>
        <g
           stroke-linejoin="round"
           stroke-width="0.12866"
           aria-label="LOVER'S"
           id="g47">
          <path
             d="m 319.71,3.9445 h 0.18982 v 1.2432 h 0.68316 V 5.34745 H 319.71 Z"
             id="path33" />
          <path
             d="m 321.29,4.0732 q -0.20674,0 -0.3289,0.15411 -0.12122,0.15411 -0.12122,0.42004 0,0.26499 0.12122,0.4191 0.12216,0.15411 0.3289,0.15411 0.20673,0 0.32701,-0.15411 0.12122,-0.15411 0.12122,-0.4191 0,-0.26593 -0.12122,-0.42004 Q 321.49673,4.0732 321.29,4.0732 Z m 0,-0.15411 q 0.29506,0 0.47172,0.19828 0.17666,0.19734 0.17666,0.52999 0,0.33171 -0.17666,0.52999 -0.17666,0.19734 -0.47172,0.19734 -0.29601,0 -0.47361,-0.19734 -0.17666,-0.19734 -0.17666,-0.52999 0,-0.33265 0.17666,-0.52999 0.1776,-0.19828 0.47361,-0.19828 z"
             id="path35" />
          <path
             d="m 322.56,5.3474 -0.53562,-1.403 h 0.19827 l 0.44448,1.1812 0.44541,-1.1812 h 0.19733 l -0.53468,1.403 z"
             id="path37" />
          <path
             d="m 323.51,3.9445 h 0.88707 v 0.15975 h -0.69725 v 0.41534 h 0.66812 v 0.15975 h -0.66812 v 0.50837 h 0.71416 V 5.34746 H 323.51 Z"
             id="path39" />
          <path
             d="m 325.4,4.6896 q 0.0611,0.020673 0.1184,0.088331 0.0583,0.067658 0.11652,0.18606 l 0.19264,0.38339 h -0.20391 l -0.17948,-0.3599 q -0.0695,-0.14095 -0.13532,-0.187 -0.0648,-0.046045 -0.1776,-0.046045 h -0.20673 v 0.59295 h -0.18982 v -1.403 h 0.4285 q 0.24056,0 0.35896,0.10055 0.1184,0.10055 0.1184,0.30352 0,0.1325 -0.062,0.21989 -0.0611,0.087391 -0.17854,0.12122 z m -0.47548,-0.58919 v 0.49804 h 0.23868 q 0.13719,0 0.20673,-0.062959 0.0705,-0.063899 0.0705,-0.187 0,-0.1231 -0.0705,-0.18512 -0.0695,-0.062959 -0.20673,-0.062959 z"
             id="path41" />
          <path
             d="m 326.22,3.9445 v 0.52153 h -0.15975 V 3.9445 Z"
             id="path43" />
          <path
             d="m 327.44,3.9905 v 0.18512 q -0.10806,-0.051683 -0.20391,-0.077055 -0.0959,-0.025372 -0.18512,-0.025372 -0.15505,0 -0.23962,0.06014 -0.0836,0.06014 -0.0836,0.17102 0,0.093029 0.0554,0.14095 0.0564,0.046985 0.21237,0.076115 l 0.11464,0.023492 q 0.21237,0.040407 0.31292,0.14283 0.10149,0.10149 0.10149,0.27251 0,0.20391 -0.1372,0.30916 -0.13626,0.10525 -0.40031,0.10525 -0.0996,0 -0.21237,-0.022553 -0.11182,-0.022553 -0.2321,-0.066718 v -0.19546 q 0.11558,0.064839 0.22646,0.097728 0.11089,0.032889 0.21801,0.032889 0.16257,0 0.2509,-0.063899 0.0883,-0.063899 0.0883,-0.1823 0,-0.10337 -0.0639,-0.16163 -0.063,-0.058261 -0.20767,-0.087391 l -0.11554,-0.022552 q -0.21237,-0.042286 -0.30728,-0.1325 -0.0949,-0.09021 -0.0949,-0.2509 0,-0.18606 0.13062,-0.29318 0.13155,-0.10712 0.36178,-0.10712 0.0987,0 0.20109,0.017854 0.10243,0.017854 0.20955,0.053562 z"
             id="path45" />
        </g>
        <path
           d="m 319.95,6.2306 h 7.3338 c 0.0931,0 0.16814,0.074989 0.16814,0.16814 v 1.8847 c 0,0.093148 -0.075,0.16814 -0.16814,0.16814 H 319.95 c -0.0932,0 -0.16814,-0.074989 -0.16814,-0.16814 v -1.8847 c 0,-0.093148 0.075,-0.16814 0.16814,-0.16814 z"
           stroke-width="0.26744"
           id="path49" />
      </g>
      <g
         fill="#078500"
         stroke="#078500"
         stroke-linejoin="round"
         stroke-width="0.1081"
         aria-label="MARKET"
         id="g65">
        <path
           d="m 320.23,6.9678 h 0.17409 l 0.22036,0.58763 0.22152,-0.58763 h 0.17409 v 0.86351 h -0.11394 V 7.07306 l -0.22268,0.59226 h -0.11741 L 320.34336,7.07306 V 7.83131 H 320.23 Z"
           id="path53" />
        <path
           d="m 321.94,7.0829 -0.15848,0.42973 h 0.31753 z m -0.0659,-0.1151 h 0.13245 l 0.3291,0.86351 h -0.12146 l -0.0787,-0.22152 h -0.38925 l -0.0787,0.22152 h -0.12319 z"
           id="path55" />
        <path
           d="m 323.27,7.4265 q 0.0376,0.012724 0.0729,0.054367 0.0359,0.041643 0.0717,0.11452 l 0.11857,0.23598 h -0.12551 l -0.11047,-0.22152 q -0.0428,-0.086756 -0.0833,-0.1151 -0.0399,-0.02834 -0.10931,-0.02834 h -0.12724 v 0.36495 h -0.11683 v -0.86351 h 0.26374 q 0.14806,0 0.22093,0.061886 0.0729,0.061886 0.0729,0.18681 0,0.081551 -0.0382,0.13534 -0.0376,0.053789 -0.10989,0.07461 z M 322.97734,7.06386 V 7.3704 h 0.14691 q 0.0844,0 0.12724,-0.038751 0.0434,-0.039329 0.0434,-0.1151 0,-0.075767 -0.0434,-0.11394 -0.0428,-0.038751 -0.12724,-0.038751 z"
           id="path57" />
        <path
           d="m 324.07,6.9678 h 0.11683 v 0.36495 l 0.38751,-0.36495 h 0.15038 l -0.42858,0.40255 0.45923,0.46096 h -0.15385 L 324.18683,7.41546 V 7.83131 H 324.07 Z"
           id="path59" />
        <path
           d="m 325.25,6.9678 h 0.54599 v 0.098324 h -0.42916 v 0.25564 h 0.41123 v 0.098324 h -0.41123 v 0.3129 h 0.43957 V 7.831312 H 325.25 Z"
           id="path61" />
        <path
           d="m 326.27,6.9678 h 0.73048 v 0.098324 h -0.30653 v 0.76519 h -0.11741 V 7.066124 H 326.27 Z"
           id="path63" />
      </g>
      <text
         transform="matrix(0.28182,0,0,0.28182,-28.906,-3.8763)"
         font-family="sans-serif"
         font-size="6.6667px"
         style="line-height:1.25;white-space:pre;shape-inside:url(#rect301226)"
         xml:space="preserve"
         id="text67" />
    </g>
  </g>
</svg>
